<?xml version="1.0" encoding="UTF-8"?>
<svg xmlns="http://www.w3.org/2000/svg" id="logo" viewBox="0 0 100 100" aria-hidden="true">
    <rect width="100" height="100" rx="8" ry="8" fill="#D81B60"/>
    <g transform="matrix(1.0789542444743059,0,0,1.0789542444743059,0,0)" fill="#FEF4E8">
        <path d="M52.495,52.365h-9.017c-0.722,0-1.342-0.515-1.475-1.225c-0.662-3.539-6.255-34.833,0.985-43.552  c1.334-1.607,3.016-2.422,4.999-2.422s3.664,0.815,4.998,2.422c7.239,8.718,1.646,40.013,0.984,43.552  C53.837,51.851,53.217,52.365,52.495,52.365z M52.097,43.767c1.589-11.422,2.943-29.008-1.419-34.261  c-0.759-0.913-1.613-1.338-2.69-1.338s-1.933,0.425-2.69,1.338c-4.351,5.239-3.004,22.835-1.42,34.261H52.097z M44.394,46.939  c0.115,0.723,0.229,1.8,0.338,2.426h6.51c0.108-0.622,0.222-1.707,0.337-2.426H44.394z M40.312,76.502  C40.312,76.502,40.312,76.502,40.312,76.502c-0.306,0-0.606-0.011-0.9-0.034c-0.661-0.051-1.21-0.529-1.35-1.177  c-0.141-0.648,0.161-1.312,0.741-1.632c1.958-1.081,1.735-3.574,1.17-7.255c-0.195-1.275-0.38-2.479-0.386-3.595  c-0.012-2.303,0.846-4.441,2.417-6.021c1.472-1.479,3.392-2.294,5.409-2.294c4.605,0,7.707,3.632,7.718,9.037  c0.007,3.048-1.219,5.889-3.542,8.217C48.706,74.636,44.28,76.502,40.312,76.502z M47.412,57.494c-1.212,0-2.377,0.501-3.282,1.41  c-1.004,1.009-1.552,2.391-1.544,3.89c0.005,0.895,0.173,1.992,0.352,3.155c0.341,2.225,0.764,4.981-0.041,7.24  c2.43-0.564,4.867-1.857,6.567-3.561c1.219-1.222,2.671-3.27,2.665-6.092C52.123,59.81,50.314,57.494,47.412,57.494z M50.847,83.881  c0.662-0.272,1.275-0.542,1.862-0.8c2.534-1.113,4.364-1.915,7.549-1.734c0.702,0.041,1.648,0.24,2.65,0.452  c2.721,0.572,5.805,1.223,7.963-0.285c1.085-0.757,1.75-1.937,1.977-3.507c0.304-2.104-0.953-4.372-3.363-6.067  c-3.146-2.212-8.848-3.718-14.565-0.682c-0.732,0.389-1.01,1.297-0.622,2.028c0.389,0.732,1.299,1.008,2.028,0.622  c4.518-2.398,8.983-1.238,11.434,0.484c1.423,1.001,2.255,2.252,2.12,3.186c-0.156,1.079-0.585,1.378-0.726,1.477  c-1.091,0.762-3.606,0.234-5.627-0.191c-1.115-0.235-2.168-0.457-3.095-0.511c-3.906-0.232-6.233,0.797-8.93,1.982  c-0.565,0.248-1.157,0.509-1.795,0.771c-3.762,1.542-6.897,0.573-10.915-0.963c-3.857-1.478-6.791-0.924-9.896-0.339  c-0.803,0.151-1.633,0.309-2.518,0.437c-2.558,0.366-4.657-0.384-5.609-2.012c-0.765-1.309-0.632-2.914,0.349-4.188  c2.107-2.738,7.198-3.314,13.616-1.542c0.798,0.22,1.625-0.247,1.846-1.046c0.221-0.798-0.248-1.624-1.046-1.845  c-11.009-3.046-15.412,0.806-16.794,2.604c-1.714,2.228-1.934,5.185-0.561,7.532c1.59,2.719,4.817,4.019,8.626,3.466  c0.929-0.134,1.803-0.298,2.646-0.457c2.907-0.549,5.204-0.981,8.267,0.192c2.771,1.061,5.396,1.94,8.163,1.94  C47.472,84.885,49.108,84.595,50.847,83.881z"/>
    </g>
</svg>
